PathFileType	4	(X/Y/Z)	TVC_16_BWA5_walk_RCNL2025.trc
DataRate	CameraRate	NumFrames	NumMarkers	Units	OrigDataRate	OrigDataStartFrame	OrigNumFrames
100	100	8	27	mm	100	588	671
Frame#	Time	R_Shoulder			L_Shoulder			C7			J_Notch			R_Elbow			L_Elbow			R_Wrist			L_Wrist			R_Asis			L_Asis			R_Psis			L_Psis			Sacral			Thoracic			Sternum			R_Thigh_Lateral			R_Knee_Lateral			R_Shank_Lateral			R_Ankle_Lateral			R_Heel			R_Toe			L_Thigh_Lateral			L_Knee_Lateral			L_Shank_Lateral			L_Ankle_Lateral			L_Heel			L_Toe		
		X1	Y1	Z1	X2	Y2	Z2	X3	Y3	Z3	X4	Y4	Z4	X5	Y5	Z5	X6	Y6	Z6	X7	Y7	Z7	X8	Y8	Z8	X9	Y9	Z9	X10	Y10	Z10	X11	Y11	Z11	X12	Y12	Z12	X13	Y13	Z13	X14	Y14	Z14	X15	Y15	Z15	X16	Y16	Z16	X17	Y17	Z17	X18	Y18	Z18	X19	Y19	Z19	X20	Y20	Z20	X21	Y21	Z21	X22	Y22	Z22	X23	Y23	Z23	X24	Y24	Z24	X25	Y25	Z25	X26	Y26	Z26	X27	Y27	Z27
588	5.87000000	820.528259	1300.240234	92.900162	778.046326	1323.171997	-228.374268	744.656616	1366.035034	-49.752499	878.118103	1235.230347	-72.223457	798.587341	985.570435	165.621323	807.040161	1003.616089	-311.626038	901.650177	777.471741	165.847641	912.526276	827.378662	-232.231773	846.629028	876.207764	15.895305	799.456909	908.907898	-234.462036	658.322571	916.873901	-25.142038	638.185364	921.042725	-129.942078	648.253967	918.958313	-77.542058	669.275024	1099.812134	-68.260483	906.813477	1049.635010	-107.048500	797.401123	595.314331	102.151627	812.619080	424.394958	4.269124	777.560303	268.340240	56.015007	724.322937	56.286713	-25.116507	673.245483	50.543724	-72.456215	844.492004	39.280617	-72.489410	808.567444	618.760193	-334.811584	864.012573	441.517487	-256.608032	769.091553	314.045319	-315.084808	687.603882	106.473694	-240.127502	654.803284	111.729942	-185.304092	807.134521	39.932537	-235.747650
589	5.88000000	822.855164	1300.166992	93.271294	781.177368	1322.962280	-228.129425	747.227417	1365.811035	-49.623650	880.986938	1235.248413	-71.630615	801.606323	985.215393	165.427338	810.710022	1003.432434	-311.199829	905.340729	777.439453	164.933968	915.622986	827.070557	-231.231056	849.808105	875.937134	16.047550	803.267090	908.869202	-234.007233	661.390381	916.547119	-25.080750	641.512878	920.736023	-129.985519	651.451630	918.641571	-77.533134	672.231262	1099.471436	-68.210403	910.005310	1049.699463	-106.111816	800.490234	594.933350	101.933762	814.618042	424.016754	4.037788	779.003418	268.069122	55.795120	724.428833	56.339996	-25.202080	673.324585	50.673306	-72.516945	844.515808	39.220337	-72.537544	813.464172	618.613831	-334.072876	870.190308	442.098633	-254.966766	780.068115	312.261414	-314.597931	700.795349	103.162437	-240.372635	667.129333	107.740829	-185.970581	822.043457	39.645947	-234.435455
590	5.89000000	825.227783	1300.049805	93.589409	784.324036	1322.724121	-227.925995	749.825806	1365.562134	-49.537209	883.867371	1235.216919	-71.079323	804.684448	984.833435	165.216095	814.349487	1003.211304	-310.804626	909.040070	777.359375	163.941513	918.600616	826.646179	-230.334923	853.023132	875.673462	16.153185	806.978333	908.745300	-233.613556	664.465332	916.197083	-25.026814	644.826050	920.389160	-130.029648	654.645691	918.293121	-77.528231	675.191528	1099.112671	-68.200966	913.172302	1049.698486	-105.228821	803.696289	594.551147	101.726021	816.621521	423.628296	3.818602	780.449890	267.791138	55.590740	724.528198	56.385933	-25.270382	673.395386	50.806816	-72.558884	844.549744	39.174641	-72.584045	818.740417	618.583191	-333.376526	876.417114	442.656891	-253.400726	790.872070	310.716370	-314.041931	713.804688	100.150879	-240.490768	679.343018	104.078583	-186.489212	836.554016	39.514362	-233.058746
591	5.90000000	827.647217	1299.886353	93.854362	787.483032	1322.459106	-227.764297	752.453430	1365.288086	-49.491009	886.759888	1235.136230	-70.574562	807.832581	984.422424	164.985825	817.946655	1002.954529	-310.445953	912.753143	777.226929	162.877525	921.460419	826.115845	-229.551979	856.261536	875.417725	16.224695	810.595886	908.537476	-233.279007	667.548340	915.823120	-24.982895	648.128479	920.000854	-130.076233	657.838409	917.911987	-77.529564	678.157654	1098.735474	-68.232430	916.314392	1049.634277	-104.410316	807.011475	594.167969	101.534111	818.623230	423.228699	3.617881	781.888367	267.508331	55.407120	724.620544	56.423832	-25.322529	673.459839	50.943455	-72.583992	844.594543	39.141869	-72.629059	824.430054	618.680481	-332.715729	882.672546	443.189331	-251.931488	801.319458	309.427948	-313.435211	726.583923	97.439301	-240.474152	691.404785	100.747528	-186.847580	850.620850	39.509926	-231.625885
592	5.91000000	830.113342	1299.675903	94.066391	790.651489	1322.168579	-227.644897	755.111389	1364.988525	-49.483284	889.665222	1235.007568	-70.120941	811.059631	983.980896	164.733749	821.490479	1002.664307	-310.129944	916.484436	777.038910	161.749512	924.204987	825.490967	-228.890198	859.511414	875.169617	16.275202	814.127991	908.249084	-233.001343	670.640015	915.424988	-24.952188	651.424622	919.570801	-130.128006	661.032318	917.497894	-77.540097	681.131592	1098.339478	-68.304985	919.432861	1049.510742	-103.665756	810.412781	593.782898	101.364098	820.617798	422.817261	3.441367	783.306946	267.221893	55.249420	724.705750	56.453541	-25.360102	673.520264	51.082325	-72.594719	844.649353	39.119560	-72.672173	830.540833	618.906860	-332.083984	888.933167	443.691956	-250.576996	811.255737	308.393433	-312.801697	739.098511	95.015251	-240.320190	703.283386	97.739265	-187.040802	864.220886	39.602623	-230.142776
593	5.92000000	832.625183	1299.418579	94.226067	793.827271	1321.853882	-227.568497	757.800842	1364.663330	-49.512657	892.584412	1234.832764	-69.722633	814.372559	983.508362	164.456390	824.970825	1002.342773	-309.862946	920.238281	776.793671	160.565063	926.838501	824.783386	-228.356789	862.762573	874.927429	16.317829	817.585144	907.884644	-232.778336	673.740967	915.003113	-24.938286	654.719543	919.099548	-130.188446	664.230255	917.051331	-77.563366	684.115845	1097.924683	-68.418716	922.530273	1049.332642	-103.003174	813.862976	593.394409	101.222466	822.601501	422.393341	3.294036	784.694397	266.931915	55.121990	724.784241	56.475315	-25.384958	673.579346	51.222519	-72.593727	844.712219	39.104763	-72.712440	837.047852	619.252319	-331.478027	895.174316	444.160095	-249.350922	820.577637	307.589539	-312.165131	751.326355	92.856575	-240.030945	714.956360	95.034996	-187.070267	877.350830	39.763920	-228.615585
594	5.93000000	835.181152	1299.116089	94.334244	797.008545	1321.515869	-227.535904	760.522766	1364.312744	-49.578144	895.518738	1234.614990	-69.383263	817.776245	983.005066	164.149704	828.379089	1001.992065	-309.651306	924.018433	776.491119	159.331749	929.366760	824.005432	-227.957932	866.007202	874.688477	16.365047	820.979492	907.450073	-232.607956	676.851868	914.558411	-24.945063	658.018738	918.588562	-130.261734	667.435303	916.573486	-77.603398	687.113098	1097.490845	-68.573502	925.610596	1049.105469	-102.429001	817.315125	593.000305	101.115921	824.572510	421.956573	3.179899	786.041809	266.637421	55.027859	724.856873	56.489708	-25.399057	673.639587	51.363258	-72.583733	844.779663	39.094334	-72.748550	843.890564	619.695679	-330.900024	901.371704	444.588715	-248.262329	829.244629	306.975861	-311.544525	763.256836	90.934479	-239.612762	726.409058	92.608002	-186.942581	890.023438	39.969425	-227.052292
595	5.94000000	837.779358	1298.770752	94.392014	800.194214	1321.155273	-227.548035	763.278198	1363.937378	-49.679123	898.470032	1234.357300	-69.105919	821.273743	982.472107	163.809448	831.708252	1001.614197	-309.501007	927.828583	776.132477	158.056885	931.797577	823.169006	-227.698639	869.239380	874.448853	16.428011	824.324219	906.951965	-232.488525	679.973694	914.091980	-24.976543	661.328247	918.040161	-130.352417	670.650970	916.066071	-77.664480	690.126282	1097.038330	-68.769005	928.678711	1048.835449	-101.948044	820.718567	592.598083	101.050667	826.531006	421.506683	3.101819	787.343689	266.336456	54.968369	724.924866	56.497490	-25.404297	673.703247	51.504143	-72.567352	844.847534	39.085220	-72.779007	850.973572	620.205627	-330.358154	907.502380	444.972900	-247.315567	837.279114	306.500458	-310.951508	774.889282	89.216431	-239.075867	737.634460	90.426132	-186.668549	902.264282	40.200455	-225.462982
